<svg width="640" height="640" viewBox="0 0 640 640" fill="none" xmlns="http://www.w3.org/2000/svg">
<path d="M270.968 200.111L248.879 40.5494C252.199 39.5671 255.428 38.5301 258.566 37.4383C261.813 36.1642 264.897 34.8535 267.816 33.5062C270.589 32.1952 273.471 31.012 276.463 29.9566C279.419 28.7552 282.338 27.7179 285.22 26.8448L285.654 31.3863C285.872 32.882 285.998 34.6329 286.033 36.6391C286.177 38.463 286.395 40.5788 286.684 42.9864C287.227 48.2758 287.806 54.3312 288.421 61.1526C289.036 67.9741 289.686 75.5615 290.373 83.915C290.734 89.0948 291.203 95.3325 291.781 102.628C292.505 109.887 293.246 118.15 294.005 127.415L297.288 126.597C297.512 119.411 297.736 112.846 297.96 106.901C298.183 100.955 298.352 95.7211 298.465 91.1982C298.578 86.6753 298.727 82.6084 298.912 78.9975C299.207 75.2042 299.374 71.8304 299.412 68.8759C299.786 57.3134 300.067 47.8664 300.255 40.5349C300.443 33.2035 300.575 28.4435 300.649 26.255L302.62 25.7642C306.414 24.8188 310.281 23.5452 314.222 21.9433C318.308 20.3051 321.939 18.703 325.114 17.1371C325.113 17.7572 325.421 20.2378 326.038 24.5788C326.655 28.9199 327.435 34.2277 328.378 40.5023C329.321 46.7768 330.319 53.2703 331.372 59.9826C333.441 72.6413 335.183 83.6766 336.599 93.0884C338.16 102.464 339.357 110.07 340.192 115.907L344.132 114.925L341.474 15.6179L355.649 9.99355C357.62 9.19264 359.663 8.37354 361.779 7.53625C363.895 6.69897 366.085 5.84352 368.347 4.96988C372.433 3.33168 376.283 1.67505 379.895 5.79616e-06C378.572 13.3491 377.793 28.8871 377.561 46.6141C377.328 64.341 377.15 82.2869 377.026 100.452C377.018 110.373 377.047 120.44 377.112 130.654C377.286 140.685 377.515 150.934 377.799 161.403L330.401 182.048L318.979 95.1537L316.352 95.8082L314.48 180.667L270.968 200.111Z" fill="#0088FF"/>
<path d="M193.661 219.373C184.03 221.773 175.222 220.016 167.239 214.1C159.255 208.185 153.391 197.712 149.646 182.681C147.573 174.363 146.413 165.352 146.165 155.65C145.918 145.947 146.509 136.19 147.939 126.379C149.369 116.569 151.547 107.269 154.472 98.4806C159.152 84.2952 165.563 72.0809 173.705 61.8376C181.847 51.5944 191.464 45.091 202.554 42.3276C211.31 40.1459 218.587 40.7352 224.384 44.0955C230.29 47.2735 235.065 52.1285 238.707 58.6605C242.313 65.0466 245.043 71.9609 246.898 79.4034C251.225 96.7692 252.561 113.64 250.907 130.016C249.362 146.21 245.649 160.542 239.766 173.013C233.957 185.774 226.945 196.201 218.732 204.292C210.628 212.201 202.271 217.228 193.661 219.373ZM196.482 180.31C203.049 178.674 208.268 175.049 212.139 169.434C216.156 163.784 219.079 157.166 220.909 149.58C222.702 141.849 223.547 134.044 223.444 126.165C223.341 118.286 222.544 111.355 221.053 105.372C220.471 103.037 219.634 100.611 218.542 98.0931C217.413 95.4295 215.864 93.258 213.896 91.5786C211.928 89.8992 209.411 89.4412 206.347 90.2048C199.634 91.8774 194.196 95.8673 190.033 102.174C185.833 108.335 182.836 115.592 181.043 123.943C179.285 132.441 178.44 140.556 178.507 148.289C178.574 156.022 179.352 162.88 180.843 168.863C181.607 171.927 183.501 174.865 186.527 177.676C189.515 180.341 192.834 181.219 196.482 180.31Z" fill="#0088FF"/>
<path d="M59.0657 252.445C58.4539 241.903 57.8055 231.525 57.1205 221.312C56.545 210.916 55.9877 200.593 55.4486 190.343C54.4737 177.721 53.5346 165.866 52.6314 154.777C51.8742 143.651 51.0621 132.616 50.1953 121.673C49.4744 110.693 48.5532 99.2209 47.4319 87.256L82.2932 76.0124C82.3576 86.8457 82.5312 98.1168 82.8138 109.826C83.2424 121.498 83.7441 132.843 84.3191 143.859L105.39 136.051C105.139 130.689 104.833 125.418 104.472 120.238C104.221 114.876 103.842 109.623 103.336 104.48C102.865 99.4824 102.523 94.3755 102.308 89.1593C102.203 83.7609 102.171 78.3442 102.211 72.9094C107.247 70.7248 112.41 68.7409 117.7 66.9577C122.954 65.0286 127.387 63.5366 130.999 62.4817C134.574 61.2808 136.362 60.6803 136.362 60.6803C135.92 66.9903 135.731 74.3217 135.798 82.6747C135.864 91.0277 136.113 99.8003 136.543 108.992C136.974 118.185 137.477 127.359 138.053 136.515C138.594 145.524 139.134 153.914 139.675 161.684C140.397 171.424 141.21 181.218 142.114 191.067C142.982 200.77 143.904 210.692 144.881 220.833L111.715 233.282C111.646 228.65 111.449 224.126 111.124 219.713C110.909 215.117 110.657 210.685 110.368 206.417C110.082 199.048 109.724 191.388 109.292 183.436C109.007 175.448 108.629 168.645 108.159 163.027L87.417 170.288C87.5242 173.206 87.6859 176.343 87.9021 179.699C88.2642 183.018 88.535 186.593 88.7144 190.423C88.8937 194.253 89.0549 198.011 89.1979 201.695C89.4505 205.197 89.7031 208.698 89.9557 212.2C90.2078 216.322 90.3869 220.462 90.4931 224.621C90.5993 228.779 90.7784 232.919 91.0305 237.041L59.0657 252.445Z" fill="#0088FF"/>
<path d="M340.385 508.389C330.732 508.389 321.47 506.302 312.6 502.128C303.991 497.954 296.556 491.562 290.295 482.953C283.773 474.605 278.685 464.039 275.033 451.255C271.38 438.472 269.554 423.471 269.554 406.253C269.554 372.598 274.381 343.249 284.033 318.204C293.686 293.159 305.948 272.288 320.818 255.591C335.428 238.894 351.081 226.502 367.778 218.415C384.735 210.327 400.519 206.284 415.128 206.284C429.216 206.284 440.695 209.414 449.565 215.676C458.436 221.676 464.958 229.763 469.132 239.938C473.306 250.112 475.393 261.461 475.393 273.984L421.781 284.158C419.433 273.723 416.302 266.287 412.389 261.852C408.476 257.417 404.041 255.2 399.084 255.2C393.344 255.2 387.344 258.33 381.083 264.592C375.082 270.853 369.082 279.332 363.082 290.028C357.342 300.463 352.125 312.203 347.429 325.248C342.733 338.292 338.819 351.727 335.689 365.554C332.819 379.381 331.123 392.426 330.602 404.687C330.602 420.862 332.949 432.472 337.645 439.516C342.602 446.299 348.864 449.69 356.429 449.69C363.734 449.69 370.908 447.342 377.952 442.646C385.257 437.95 391.257 431.689 395.953 423.862C400.91 415.775 403.519 406.774 403.78 396.861L361.908 403.122L369.343 364.38L405.345 359.685C415.259 358.38 425.694 356.815 436.652 354.989C447.87 353.162 457.653 351.467 466.001 349.901C464.175 376.512 458.957 399.861 450.348 419.949C442 439.776 431.564 456.212 419.042 469.256C406.519 482.301 393.345 492.084 379.518 498.606C365.952 505.128 352.907 508.389 340.385 508.389Z" fill="#6155F5"/>
<path d="M172.428 498.606C176.863 483.214 181.168 465.735 185.342 446.168C189.777 426.602 193.951 406.644 197.864 386.295C202.039 365.685 205.952 346.249 209.604 327.987C212.996 311.29 216.257 294.333 219.388 277.114C222.518 259.896 225.649 242.547 228.779 225.067L289.827 215.284C286.435 232.764 283.044 250.112 279.652 267.331C276.261 284.289 272.869 301.246 269.478 318.204C265.825 336.466 262.042 355.771 258.129 376.12C254.216 396.469 250.433 416.558 246.781 436.385C243.128 455.951 239.737 474.213 236.606 491.171C231.91 491.171 226.04 491.562 218.996 492.345C211.952 492.867 204.908 493.649 197.864 494.693C190.821 495.476 184.82 496.258 179.863 497.041C175.167 497.824 172.689 498.345 172.428 498.606Z" fill="#6155F5"/>
<path d="M34.0017 500.563C24.3489 500.563 15.3483 499.78 7 498.215C19.5225 452.56 29.4362 406.644 36.741 360.467C44.3067 314.029 51.481 267.331 58.2641 220.372C71.8301 217.502 85.9179 215.023 100.528 212.936C115.137 210.588 130.269 209.414 145.922 209.414C154.531 209.414 163.662 210.98 173.315 214.11C182.967 216.98 191.055 222.328 197.577 230.155C204.36 237.72 207.752 248.547 207.752 262.635C207.752 275.679 205.012 287.68 199.534 298.637C194.055 309.594 187.142 318.986 178.793 326.813C170.445 334.639 161.836 340.249 152.966 343.64C156.618 345.466 160.923 348.727 165.879 353.423C170.836 358.119 175.141 364.38 178.793 372.207C182.446 380.034 184.272 389.556 184.272 400.774C184.272 416.427 179.576 430.645 170.184 443.429C161.053 455.951 148.791 466.387 133.399 474.735C118.529 483.083 102.484 489.475 85.2657 493.91C68.0473 498.345 50.9592 500.563 34.0017 500.563ZM103.658 311.551C111.746 309.986 119.442 307.899 126.747 305.29C134.051 302.681 139.921 299.681 144.356 296.289C149.052 292.898 151.4 289.245 151.4 285.332C151.4 280.375 149.444 276.462 145.53 273.592C141.617 270.722 136.921 268.635 131.442 267.331C125.964 266.027 120.877 265.374 116.181 265.374H112.267C110.441 275.81 108.745 284.941 107.18 292.767C105.615 300.333 104.441 306.594 103.658 311.551ZM83.7004 421.514C88.9181 420.993 94.6576 420.08 100.919 418.775C107.18 417.471 113.181 415.514 118.92 412.905C124.659 410.035 129.355 406.383 133.008 401.948C136.921 397.252 138.878 391.643 138.878 385.121C138.878 378.86 136.791 373.903 132.616 370.25C128.442 366.598 123.355 363.989 117.355 362.424C111.615 360.598 106.137 359.684 100.919 359.684H97.7882C96.4838 359.684 95.4403 359.815 94.6576 360.076C93.0923 369.729 91.2661 379.903 89.179 390.599C87.0919 401.296 85.2657 411.601 83.7004 421.514Z" fill="#6155F5"/>
<path d="M551.485 581.572C551.485 573.451 552.613 566.232 554.868 559.916C557.275 553.449 560.283 547.734 563.892 542.771C567.501 537.808 571.186 533.522 574.946 529.912C580.661 524.348 585.925 519.46 590.737 515.249C595.55 511.038 597.956 507.278 597.956 503.97C597.956 503.067 597.354 501.864 596.151 500.36C594.948 498.706 593.068 497.879 590.512 497.879C587.805 497.879 584.345 499.007 580.134 501.263C575.923 503.518 571.562 506.376 567.05 509.835C562.539 513.144 558.328 516.603 554.417 520.212L542.461 492.465C550.131 485.546 558.779 480.132 568.404 476.222C578.029 472.161 587.805 470.131 597.73 470.131C603.897 470.131 609.687 471.034 615.101 472.838C620.515 474.643 624.876 477.651 628.185 481.862C631.644 486.073 633.374 491.788 633.374 499.007C633.374 509.384 630.892 518.031 625.929 524.949C621.117 531.717 615.477 537.507 609.01 542.32C602.242 547.283 595.851 552.622 589.835 558.337C583.97 564.052 580.059 570.894 578.104 578.865L551.485 581.572ZM557.124 640C551.109 640 546.672 638.195 543.815 634.586C540.957 630.826 539.528 626.389 539.528 621.276C539.528 617.366 540.506 613.531 542.461 609.771C544.416 606.011 547.274 602.853 551.033 600.296C554.793 597.74 559.38 596.461 564.794 596.461C573.066 596.461 579.082 598.266 582.842 601.875C586.752 605.485 588.707 609.621 588.707 614.283C588.707 618.494 587.429 622.63 584.872 626.69C582.466 630.6 578.856 633.759 574.044 636.165C569.381 638.722 563.742 640 557.124 640Z" fill="#00C8B3"/>
<path d="M456.443 635.037C458.097 626.765 459.752 618.569 461.406 610.448C463.211 602.176 464.865 594.055 466.369 586.084C472.084 557.509 476.746 530.138 480.356 503.97C478.701 503.669 476.972 503.518 475.167 503.518C473.362 503.368 471.633 503.368 469.978 503.518C466.369 503.819 462.835 503.368 459.376 502.165C459.526 500.962 459.601 499.683 459.601 498.33C459.601 496.826 459.601 495.322 459.601 493.818C459.601 492.164 459.601 490.585 459.601 489.081C459.601 487.426 459.676 485.847 459.827 484.343C459.977 482.689 460.052 480.959 460.052 479.155C460.052 477.2 460.128 475.245 460.278 473.289C464.188 473.59 468.098 473.816 472.009 473.966C475.919 474.117 479.829 474.192 483.739 474.192C494.868 474.192 505.471 473.816 515.547 473.064C525.774 472.312 535.174 471.41 543.746 470.357L541.265 482.539L539.234 493.141C538.482 497.051 537.806 500.135 537.204 502.39C535.55 502.842 533.895 503.218 532.241 503.518C530.587 503.819 528.932 504.045 527.278 504.195C525.624 504.346 523.894 504.571 522.09 504.872C520.435 505.173 518.781 505.474 517.127 505.774C514.871 516.903 512.991 526.529 511.487 534.65C510.133 542.771 508.855 550.591 507.652 558.111C506.599 565.48 505.321 573.602 503.817 582.475C501.26 597.664 499.004 613.08 497.049 628.721L456.443 635.037Z" fill="#00C8B3"/>
<path d="M396.974 634.36C397.274 631.804 397.575 629.322 397.876 626.916C398.177 624.509 398.478 622.103 398.778 619.697L400.132 607.064C400.282 604.958 400.433 603.003 400.583 601.199C400.733 599.394 400.884 597.74 401.034 596.236H381.408L372.384 628.72C369.076 629.172 365.166 629.698 360.654 630.3C356.142 630.751 351.931 631.202 348.021 631.653C345.614 631.954 343.208 632.255 340.802 632.556C338.546 632.856 336.215 633.157 333.809 633.458L351.63 574.353C353.736 567.285 356.142 559.239 358.849 550.215C361.556 541.192 364.263 531.943 366.97 522.468C369.828 512.993 372.46 504.12 374.866 495.848C377.423 487.426 379.453 480.358 380.957 474.643C391.184 473.891 401.561 472.989 412.088 471.936C422.766 470.883 433.143 469.454 443.219 467.65C442.468 476.072 441.716 485.622 440.964 496.3C440.362 506.827 439.76 517.731 439.159 529.01C438.708 540.289 438.181 551.419 437.58 562.397C437.279 572.774 436.903 583.527 436.452 594.656C436.001 605.635 435.549 616.915 435.098 628.495C432.842 628.796 430.586 629.096 428.331 629.397C426.075 629.698 423.819 629.999 421.563 630.3C417.803 630.901 413.667 631.578 409.155 632.33C404.644 633.082 400.583 633.759 396.974 634.36ZM386.822 573.677C387.724 573.677 389.379 573.601 391.785 573.451C394.342 573.301 396.748 573.15 399.004 573C401.26 572.85 402.613 572.774 403.065 572.774C403.065 570.819 403.365 566.834 403.967 560.818C404.569 554.802 405.17 548.486 405.772 541.869C406.072 537.958 406.373 533.973 406.674 529.912C407.125 525.701 407.576 521.415 408.028 517.054L409.381 497.427L405.997 497.653L400.809 517.054L386.822 573.677Z" fill="#00C8B3"/>
<path d="M240.779 635.263C242.734 624.886 244.614 614.659 246.419 604.582C248.374 594.356 250.329 584.204 252.284 574.128C254.39 561.645 256.345 549.915 258.15 538.936C260.105 527.957 261.985 517.054 263.789 506.225C265.744 495.397 267.624 484.043 269.429 472.161L305.975 469.68C303.418 480.207 300.861 491.186 298.304 502.616C295.898 514.046 293.642 525.175 291.537 536.003L313.87 533.522C314.923 528.258 315.9 523.069 316.803 517.956C317.856 512.692 318.758 507.504 319.51 502.39C320.262 497.427 321.164 492.389 322.217 487.276C323.42 482.012 324.698 476.748 326.052 471.485C331.466 470.582 336.955 469.906 342.52 469.454C348.085 468.853 352.747 468.477 356.507 468.326C360.266 468.026 362.146 467.875 362.146 467.875C360.191 473.891 358.236 480.959 356.281 489.081C354.326 497.202 352.446 505.774 350.641 514.798C348.837 523.821 347.107 532.845 345.453 541.869C343.798 550.742 342.294 559.013 340.941 566.683C339.287 576.309 337.707 586.009 336.203 595.784C334.7 605.41 333.196 615.26 331.692 625.337L296.5 629.397C297.553 624.886 298.455 620.449 299.207 616.088C300.109 611.576 300.936 607.214 301.688 603.003C303.192 595.784 304.696 588.265 306.2 580.444C307.854 572.624 309.133 565.931 310.035 560.367L288.153 562.397C287.551 565.255 286.95 568.338 286.348 571.646C285.897 574.955 285.295 578.489 284.544 582.249C283.792 586.009 283.04 589.694 282.288 593.303C281.686 596.762 281.084 600.221 280.483 603.68C279.731 607.741 278.904 611.801 278.001 615.862C277.099 619.923 276.272 623.983 275.52 628.044L240.779 635.263Z" fill="#00C8B3"/>
<path d="M177.32 635.037C178.974 626.765 180.628 618.569 182.283 610.448C184.088 602.176 185.742 594.055 187.246 586.084C192.961 557.509 197.623 530.138 201.232 503.97C199.578 503.669 197.848 503.518 196.044 503.518C194.239 503.368 192.51 503.368 190.855 503.518C187.246 503.819 183.712 503.368 180.252 502.165C180.403 500.962 180.478 499.683 180.478 498.33C180.478 496.826 180.478 495.322 180.478 493.818C180.478 492.164 180.478 490.585 180.478 489.081C180.478 487.426 180.553 485.847 180.704 484.343C180.854 482.689 180.929 480.959 180.929 479.155C180.929 477.2 181.004 475.245 181.155 473.289C185.065 473.59 188.975 473.816 192.885 473.966C196.796 474.117 200.706 474.192 204.616 474.192C215.745 474.192 226.348 473.816 236.424 473.064C246.651 472.312 256.051 471.41 264.623 470.357L262.141 482.539L260.111 493.141C259.359 497.051 258.682 500.135 258.081 502.39C256.427 502.842 254.772 503.218 253.118 503.518C251.464 503.819 249.809 504.045 248.155 504.195C246.501 504.346 244.771 504.571 242.966 504.872C241.312 505.173 239.658 505.474 238.003 505.774C235.747 516.903 233.868 526.529 232.364 534.65C231.01 542.771 229.732 550.591 228.529 558.111C227.476 565.48 226.198 573.602 224.694 582.475C222.137 597.664 219.881 613.08 217.926 628.721L177.32 635.037Z" fill="#00C8B3"/>
<path d="M545.761 468.373C539.745 468.373 533.729 466.793 527.714 463.635C521.698 460.327 515.908 455.138 510.343 448.069L527.037 415.359C528.691 418.216 531.097 420.924 534.256 423.48C537.564 426.037 541.023 428.067 544.633 429.571C548.242 431.075 551.325 431.827 553.882 431.827C557.792 431.827 561.477 430.624 564.936 428.218C568.545 425.811 570.35 422.578 570.35 418.517C570.35 413.254 567.944 408.441 563.131 404.08C558.319 399.718 552.904 395.432 546.889 391.221C541.023 387.01 535.609 382.273 530.646 377.009C525.834 371.595 523.427 365.429 523.427 358.51C523.427 350.69 525.683 343.471 530.195 336.854C534.707 330.086 540.572 324.221 547.791 319.258C555.01 314.145 562.68 310.234 570.801 307.527C579.073 304.67 586.893 303.241 594.262 303.241C599.526 303.241 604.414 304.143 608.926 305.948C613.438 307.602 617.047 310.385 619.754 314.295C622.461 318.205 623.815 323.469 623.815 330.086C623.815 331.139 623.74 332.192 623.589 333.244C623.589 334.297 623.514 335.35 623.364 336.403C623.213 337.455 622.988 338.583 622.687 339.787C622.536 340.839 622.386 341.967 622.236 343.17L589.525 352.645C589.826 351.442 590.051 350.239 590.202 349.036C590.503 347.833 590.653 346.629 590.653 345.426C590.653 340.915 589.826 337.681 588.172 335.726C586.668 333.62 584.637 332.568 582.081 332.568C580.727 332.568 578.772 333.32 576.215 334.824C573.659 336.177 571.328 338.132 569.222 340.689C567.267 343.095 566.289 345.802 566.289 348.81C566.289 353.773 568.32 357.909 572.38 361.218C576.591 364.376 581.404 367.609 586.818 370.918C589.375 372.422 592.232 374.828 595.39 378.137C598.549 381.295 601.256 385.656 603.512 391.221C605.918 396.635 607.121 403.628 607.121 412.201C607.121 423.33 604.339 433.105 598.774 441.527C593.36 449.949 585.991 456.567 576.667 461.379C567.342 466.041 557.04 468.373 545.761 468.373Z" fill="#FEBC2F"/>
<path d="M460.669 467.696C463.226 458.823 465.708 448.746 468.114 437.467C470.671 426.187 473.077 414.682 475.333 402.952C477.739 391.071 479.995 379.866 482.1 369.339C484.056 359.714 485.935 349.938 487.74 340.012C489.545 330.086 491.35 320.085 493.154 310.009L528.346 304.369C526.391 314.445 524.436 324.446 522.481 334.372C520.526 344.148 518.571 353.924 516.616 363.699C514.51 374.227 512.329 385.356 510.074 397.086C507.818 408.817 505.637 420.397 503.531 431.827C501.426 443.107 499.471 453.634 497.666 463.41C494.959 463.41 491.575 463.635 487.515 464.086C483.454 464.387 479.393 464.838 475.333 465.44C471.272 465.891 467.813 466.342 464.956 466.793C462.249 467.245 460.82 467.545 460.669 467.696Z" fill="#FEBC2F"/>
</svg>
