<svg width="132" height="142" viewBox="0 0 132 142" fill="none" xmlns="http://www.w3.org/2000/svg">
<path d="M62.3559 118.316C91.4047 118.316 114.953 94.767 114.953 65.7182C114.953 36.6693 91.4047 13.1206 62.3559 13.1206C33.307 13.1206 9.7583 36.6693 9.7583 65.7182C9.7583 94.767 33.307 118.316 62.3559 118.316Z" fill="#EAEEF9"/>
<path d="M121.492 44.0134C123.98 44.0134 125.998 41.9961 125.998 39.5076C125.998 37.019 123.98 35.0017 121.492 35.0017C119.003 35.0017 116.986 37.019 116.986 39.5076C116.986 41.9961 119.003 44.0134 121.492 44.0134ZM128.086 26.4297C129.785 26.4297 131.163 25.052 131.163 23.3525C131.163 21.6531 129.785 20.2754 128.086 20.2754C126.386 20.2754 125.009 21.6531 125.009 23.3525C125.009 25.052 126.386 26.4297 128.086 26.4297ZM16.0441 21.4294C19.2003 21.4294 21.7588 18.8709 21.7588 15.7147C21.7588 12.5586 19.2003 10 16.0441 10C12.8879 10 10.3293 12.5586 10.3293 15.7147C10.3293 18.8709 12.8879 21.4294 16.0441 21.4294Z" fill="#EAEEF9"/>
<path d="M82.6957 37.063H54.6772V26.4298H91.4052C91.4727 26.4298 91.5401 26.4298 91.6077 26.4298C97.3464 26.5653 102.005 31.3061 102.005 37.063H89.8523" fill="#CCD4E2"/>
<g filter="url(#filter0_d_925_4737)">
<path d="M92.4178 26.4298C90.2573 26.5653 88.2318 27.4457 86.814 28.9357C86.679 29.0711 86.544 29.2066 86.4089 29.4098C85.1261 30.8998 84.181 32.8639 84.181 34.9634V98.2207C84.181 104.113 79.4549 108.854 73.5811 108.854H22V34.4893C22.135 32.322 22.9451 30.358 24.3629 28.9357C25.9158 27.378 28.0088 26.4298 30.3718 26.4298H82.2905H92.1476C92.2152 26.4298 92.2827 26.4298 92.4178 26.4298Z" fill="url(#paint0_linear_925_4737)"/>
</g>
<path d="M73.9189 40.9235H58.5931C58.0529 40.9235 57.5803 40.4494 57.5803 39.9076C57.5803 39.3657 58.0529 38.8917 58.5931 38.8917H73.9189C74.4589 38.8917 74.9316 39.3657 74.9316 39.9076C74.9316 40.4494 74.5265 40.9235 73.9189 40.9235ZM51.3689 40.9235H31.3845C30.8444 40.9235 30.3718 40.4494 30.3718 39.9076C30.3718 39.3657 30.8444 38.8917 31.3845 38.8917H51.4363C51.9765 38.8917 52.4491 39.3657 52.4491 39.9076C52.4491 40.4494 51.9765 40.9235 51.3689 40.9235ZM64.1967 50.9472H44.2798C43.7398 50.9472 43.2671 50.4731 43.2671 49.9313C43.2671 49.3895 43.7398 48.9154 44.2798 48.9154H64.1967C64.7368 48.9154 65.2094 49.3895 65.2094 49.9313C65.2769 50.4731 64.8043 50.9472 64.1967 50.9472Z" fill="#B3BFD3"/>
<path d="M37.8659 50.9471H31.3845C30.8444 50.9471 30.3718 50.473 30.3718 49.9312C30.3718 49.3894 30.8444 48.9153 31.3845 48.9153H37.8659C38.406 48.9153 38.8786 49.3894 38.8786 49.9312C38.8786 50.473 38.406 50.9471 37.8659 50.9471ZM73.9189 60.9708H61.6987C61.1585 60.9708 60.686 60.4967 60.686 59.9549C60.686 59.413 61.1585 58.939 61.6987 58.939H73.9189C74.4589 58.939 74.9316 59.413 74.9316 59.9549C74.9316 60.4967 74.5265 60.9708 73.9189 60.9708Z" fill="#D4DBEC"/>
<path d="M55.8248 60.9709H31.3845C30.8444 60.9709 30.3718 60.4968 30.3718 59.955C30.3718 59.4131 30.8444 58.9391 31.3845 58.9391H55.8248C56.3649 58.9391 56.8375 59.4131 56.8375 59.955C56.8375 60.4968 56.4325 60.9709 55.8248 60.9709ZM64.1968 70.9943H50.7613C50.2213 70.9943 49.7486 70.5202 49.7486 69.9784C49.7486 69.4365 50.2213 68.9625 50.7613 68.9625H64.1968C64.737 68.9625 65.2095 69.4365 65.2095 69.9784C65.277 70.5202 64.8044 70.9943 64.1968 70.9943Z" fill="#B3BFD3"/>
<path d="M44.8874 70.9943H31.3845C30.8444 70.9943 30.3718 70.5202 30.3718 69.9784C30.3718 69.4365 30.8444 68.9625 31.3845 68.9625H44.955C45.495 68.9625 45.9677 69.4365 45.9677 69.9784C45.9677 70.5202 45.495 70.9943 44.8874 70.9943Z" fill="#D4DBEC"/>
<path d="M73.9184 81.018H64.534C63.9938 81.018 63.5212 80.5439 63.5212 80.0021C63.5212 79.4603 63.9938 78.9862 64.534 78.9862H73.9184C74.4586 78.9862 74.9312 79.4603 74.9312 80.0021C74.9312 80.5439 74.5261 81.018 73.9184 81.018Z" fill="#B3BFD3"/>
<path d="M58.458 81.018H42.7271C42.1869 81.018 41.7144 80.5439 41.7144 80.0021C41.7144 79.4603 42.1869 78.9862 42.7271 78.9862H58.458C58.9981 78.9862 59.4707 79.4603 59.4707 80.0021C59.4707 80.5439 58.9981 81.018 58.458 81.018Z" fill="#D4DBEC"/>
<path d="M36.8532 81.018H31.3845C30.8444 81.018 30.3718 80.5439 30.3718 80.0021C30.3718 79.4603 30.8444 78.9862 31.3845 78.9862H36.8532C37.3933 78.9862 37.8659 79.4603 37.8659 80.0021C37.8659 80.5439 37.3933 81.018 36.8532 81.018ZM64.1967 91.0418H54.8797C54.3395 91.0418 53.867 90.5677 53.867 90.0259C53.867 89.484 54.3395 89.01 54.8797 89.01H64.1967C64.7367 89.01 65.2094 89.484 65.2094 90.0259C65.2769 90.5677 64.8043 91.0418 64.1967 91.0418Z" fill="#B3BFD3"/>
<path d="M48.7357 91.0417H31.3845C30.8444 91.0417 30.3718 90.5676 30.3718 90.0258C30.3718 89.4839 30.8444 89.0099 31.3845 89.0099H48.7357C49.2758 89.0099 49.7485 89.4839 49.7485 90.0258C49.7485 90.5676 49.2758 91.0417 48.7357 91.0417Z" fill="#D4DBEC"/>
<path d="M50.8961 100.456H64.5341C64.5341 102.758 65.4794 104.858 66.9646 106.348C68.4499 107.906 70.543 108.786 72.8384 108.786H11.4676C9.17218 108.786 7.07918 107.838 5.59386 106.348C4.10854 104.858 3.16333 102.758 3.16333 100.456H43.5371C43.5371 100.456 51.0312 100.523 50.8961 100.456Z" fill="#CCD4E2"/>
<path d="M109.444 93.9692L100.92 85.4514L102.874 83.4972L111.391 92.0217L109.444 93.9692Z" fill="#858B9B"/>
<path d="M112.407 96.9663L105.871 90.4297C105.325 89.8839 105.325 88.9943 105.871 88.4486C106.417 87.9027 107.306 87.9027 107.852 88.4486L114.388 94.985C114.935 95.5309 114.935 96.4204 114.388 96.9663C113.843 97.5121 112.953 97.5121 112.407 96.9663Z" fill="#858B9B"/>
<path d="M111.942 97.3841L103.533 88.9742C103.337 88.7787 103.337 88.462 103.533 88.2599L105.682 86.1103C105.878 85.9147 106.194 85.9147 106.396 86.1103L114.806 94.5202C115.002 94.7156 115.002 95.0323 114.806 95.2344L112.656 97.3841C112.454 97.5795 112.138 97.5795 111.942 97.3841Z" fill="url(#paint1_linear_925_4737)"/>
<path d="M91.2701 58.0049C82.348 58.0049 75.1174 65.2355 75.1174 74.1575C75.1174 83.0728 82.348 90.3102 91.2633 90.3102C100.185 90.3102 107.415 83.0795 107.415 74.1575C107.415 65.2355 100.185 58.0049 91.2701 58.0049ZM91.2701 87.3182C84.1068 87.3182 78.3048 81.4218 78.3048 74.1508C78.3048 66.8798 84.1068 60.9901 91.2701 60.9901C98.4333 60.9901 104.235 66.8865 104.235 74.1575C104.235 81.4286 98.4266 87.3182 91.2701 87.3182Z" fill="url(#paint2_linear_925_4737)"/>
<defs>
<filter id="filter0_d_925_4737" x="0" y="15.4298" width="114.418" height="126.424" filterUnits="userSpaceOnUse" color-interpolation-filters="sRGB">
<feFlood flood-opacity="0" result="BackgroundImageFix"/>
<feColorMatrix in="SourceAlpha" type="matrix" values="0 0 0 0 0 0 0 0 0 0 0 0 0 0 0 0 0 0 127 0" result="hardAlpha"/>
<feOffset dy="11"/>
<feGaussianBlur stdDeviation="11"/>
<feColorMatrix type="matrix" values="0 0 0 0 0.397708 0 0 0 0 0.47749 0 0 0 0 0.575 0 0 0 0.27 0"/>
<feBlend mode="normal" in2="BackgroundImageFix" result="effect1_dropShadow_925_4737"/>
<feBlend mode="normal" in="SourceGraphic" in2="effect1_dropShadow_925_4737" result="shape"/>
</filter>
<linearGradient id="paint0_linear_925_4737" x1="57.1862" y1="24.5236" x2="57.1862" y2="109.742" gradientUnits="userSpaceOnUse">
<stop stop-color="#FDFEFF"/>
<stop offset="0.996" stop-color="#ECF0F5"/>
</linearGradient>
<linearGradient id="paint1_linear_925_4737" x1="103.381" y1="91.7487" x2="114.955" y2="91.7487" gradientUnits="userSpaceOnUse">
<stop stop-color="#B0BACC"/>
<stop offset="1" stop-color="#969EAE"/>
</linearGradient>
<linearGradient id="paint2_linear_925_4737" x1="75.103" y1="74.1606" x2="107.422" y2="74.1606" gradientUnits="userSpaceOnUse">
<stop stop-color="#B0BACC"/>
<stop offset="1" stop-color="#969EAE"/>
</linearGradient>
</defs>
</svg>
